# xmcd CD database file generated by SCRIPT
#
# Track frame offsets:
#	150
#	21798
#	44694
#
# Disc length: 1015 seconds
#
# Revision: 0
# Submitted via: SCRIPT 0.1.2
#
DISCID=2003f503
DTITLE=Limpopo Groove / Mavambo
DYEAR=2020
DGENRE=misc
TTITLE0=Vasikana Vemazuva Ano
TTITLE1=Ndofire Musango
TTITLE2=Tauya Kuzofara
